 MeshVersionFormatted 2
 Dimension
 3
 Vertices
 32
                    0                         0                         0      1
                    1                         0                         0      2
                    1                         1                         0      3
                    0                         1                         0      4
                0.125                         0                         0      1
                 0.25                         0                         0      1
                0.375                         0                         0      1
                  0.5                         0                         0      1
                0.625                         0                         0      1
                 0.75                         0                         0      1
                0.875                         0                         0      1
                    1                     0.125                         0      2
                    1                      0.25                         0      2
                    1                     0.375                         0      2
                    1                       0.5                         0      2
                    1                     0.625                         0      2
                    1                      0.75                         0      2
                    1                     0.875                         0      2
                0.875                         1                         0      3
                 0.75                         1                         0      3
                0.625                         1                         0      3
                  0.5                         1                         0      3
                0.375                         1                         0      3
                 0.25                         1                         0      3
                0.125                         1                         0      3
                    0                     0.875                         0      4
                    0                      0.75                         0      4
                    0                     0.625                         0      4
                    0                       0.5                         0      4
                    0                     0.375                         0      4
                    0                      0.25                         0      4
                    0                     0.125                         0      4
 Edges
 32
 1 5 1
 5 6 1
 6 7 1
 7 8 1
 8 9 1
 9 10 1
 10 11 1
 11 2 1
 2 12 2
 12 13 2
 13 14 2
 14 15 2
 15 16 2
 16 17 2
 17 18 2
 18 3 2
 3 19 3
 19 20 3
 20 21 3
 21 22 3
 22 23 3
 23 24 3
 24 25 3
 25 4 3
 4 26 4
 26 27 4
 27 28 4
 28 29 4
 29 30 4
 30 31 4
 31 32 4
 32 1 4
 End
