MeshVersionFormatted 2

Dimension 2

Vertices
504
1 1 0 
1 88 0 
58 1 0 
58 88 0 
53 70 0 
58 73 0 
57 88 0 
58 87 0 
39 60 0 
28 43 0 
32 37 0 
30 66 0 
26 56 0 
36 67 0 
26 74 0 
34 78 0 
21 44 0 
19 48 0 
22 76 0 
24 66 0 
27 69 0 
34 44 0 
42 54 0 
21 69 0 
17 70 0 
20 68 0 
20 40 0 
18 23 0 
25 76 0 
23 77 0 
30 71 0 
30 69 0 
19 25 0 
26 59 0 
26 63 0 
24 57 0 
25 60 0 
18 25 0 
28 62 0 
26 69 0 
27 59 0 
32 51 0 
29 56 0 
33 68 0 
32 69 0 
37 79 0 
35 79 0 
37 80 0 
21 77 0 
40 45 0 
48 45 0 
37 77 0 
40 75 0 
39 74 0 
21 78 0 
25 79 0 
14 17 0 
17 23 0 
8 72 0 
18 64 0 
23 48 0 
18 15 0 
19 23 0 
21 25 0 
29 18 0 
31 20 0 
29 16 0 
30 18 0 
23 80 0 
29 80 0 
26 81 0 
23 74 0 
20 72 0 
57 63 0 
48 51 0 
45 49 0 
56 47 0 
40 74 0 
39 72 0 
21 64 0 
24 63 0 
58 62 0 
36 48 0 
6 55 0 
16 25 0 
26 14 0 
28 17 0 
26 19 0 
56 44 0 
22 65 0 
3 73 0 
3 63 0 
33 64 0 
24 11 0 
27 13 0 
30 61 0 
26 68 0 
17 57 0 
49 53 0 
17 17 0 
35 10 0 
10 43 0 
18 44 0 
2 74 0 
26 65 0 
27 67 0 
45 55 0 
49 63 0 
22 67 0 
24 68 0 
57 47 0 
57 37 0 
35 17 0 
2 60 0 
33 71 0 
27 71 0 
35 19 0 
27 55 0 
26 54 0 
23 61 0 
22 60 0 
57 52 0 
52 54 0 
13 11 0 
18 11 0 
29 68 0 
58 45 0 
58 36 0 
40 48 0 
23 71 0 
24 69 0 
27 78 0 
28 75 0 
26 80 0 
30 77 0 
12 42 0 
22 42 0 
29 81 0 
36 56 0 
27 52 0 
38 43 0 
30 75 0 
35 51 0 
27 56 0 
27 57 0 
37 52 0 
13 8 0 
31 82 0 
26 57 0 
26 15 0 
27 16 0 
29 69 0 
28 70 0 
11 40 0 
11 22 0 
10 32 0 
8 35 0 
8 31 0 
7 34 0 
6 29 0 
5 35 0 
27 14 0 
28 15 0 
26 42 0 
26 41 0 
27 42 0 
28 41 0 
30 42 0 
31 40 0 
25 58 0 
18 24 0 
41 71 0 
41 17 0 
41 20 0 
25 59 0 
20 24 0 
58 43 0 
56 38 0 
12 22 0 
53 52 0 
50 48 0 
49 54 0 
54 37 0 
43 38 0 
41 43 0 
43 46 0 
33 70 0 
9 18 0 
1 74 0 
1 58 0 
24 59 0 
46 53 0 
17 9 0 
21 23 0 
20 21 0 
28 13 0 
29 15 0 
27 65 0 
58 50 0 
31 15 0 
32 12 0 
23 68 0 
4 29 0 
3 35 0 
38 44 0 
1 69 0 
24 70 0 
19 18 0 
32 76 0 
21 73 0 
52 56 0 
54 55 0 
35 72 0 
32 59 0 
44 20 0 
25 63 0 
25 21 0 
26 23 0 
31 18 0 
31 17 0 
40 69 0 
42 66 0 
47 69 0 
50 68 0 
58 34 0 
20 43 0 
24 62 0 
21 48 0 
23 50 0 
22 51 0 
15 8 0 
56 71 0 
57 24 0 
58 24 0 
40 66 0 
32 68 0 
15 15 0 
23 69 0 
28 42 0 
21 24 0 
23 23 0 
22 22 0 
35 49 0 
11 23 0 
52 52 0 
33 14 0 
48 65 0 
25 78 0 
32 42 0 
32 41 0 
13 24 0 
16 24 0 
17 22 0 
12 52 0 
12 45 0 
15 45 0 
30 14 0 
15 68 0 
18 68 0 
11 69 0 
15 61 0 
15 66 0 
56 72 0 
32 80 0 
56 45 0 
54 46 0 
54 47 0 
56 46 0 
36 44 0 
24 14 0 
3 37 0 
10 40 0 
44 33 0 
30 67 0 
19 68 0 
21 67 0 
15 22 0 
16 20 0 
49 67 0 
27 53 0 
28 54 0 
10 23 0 
13 44 0 
4 42 0 
35 18 0 
47 11 0 
29 58 0 
40 44 0 
14 47 0 
58 33 0 
56 34 0 
55 33 0 
25 70 0 
29 64 0 
45 40 0 
44 43 0 
45 37 0 
38 46 0 
21 74 0 
52 74 0 
49 71 0 
23 75 0 
57 44 0 
42 34 0 
2 38 0 
2 34 0 
2 32 0 
19 42 0 
19 24 0 
19 9 0 
47 50 0 
32 17 0 
19 57 0 
49 65 0 
17 59 0 
12 43 0 
16 68 0 
42 60 0 
47 64 0 
47 65 0 
55 56 0 
8 45 0 
8 47 0 
7 46 0 
6 52 0 
2 42 0 
27 76 0 
19 44 0 
20 15 0 
47 71 0 
31 68 0 
55 52 0 
24 42 0 
23 44 0 
23 43 0 
25 44 0 
26 49 0 
53 42 0 
52 42 0 
34 56 0 
42 64 0 
14 21 0 
26 21 0 
26 22 0 
27 21 0 
27 20 0 
25 13 0 
13 52 0 
21 71 0 
22 71 0 
5 72 0 
40 29 0 
57 65 0 
56 51 0 
27 12 0 
29 12 0 
22 70 0 
25 15 0 
48 72 0 
17 8 0 
19 8 0 
49 46 0 
17 16 0 
53 62 0 
55 64 0 
39 51 0 
26 62 0 
8 21 0 
7 18 0 
10 22 0 
58 71 0 
58 69 0 
56 69 0 
32 44 0 
7 71 0 
24 67 0 
2 66 0 
48 37 0 
46 39 0 
22 77 0 
22 72 0 
35 67 0 
55 67 0 
51 63 0 
49 56 0 
43 48 0 
42 49 0 
41 44 0 
32 67 0 
25 61 0 
28 60 0 
17 13 0 
19 14 0 
15 12 0 
15 14 0 
14 14 0 
13 15 0 
45 59 0 
44 57 0 
45 56 0 
8 49 0 
26 64 0 
25 62 0 
56 40 0 
55 38 0 
7 47 0 
5 47 0 
11 27 0 
11 24 0 
22 64 0 
35 63 0 
20 67 0 
23 79 0 
23 78 0 
22 78 0 
24 79 0 
38 76 0 
27 63 0 
48 48 0 
57 46 0 
26 60 0 
13 53 0 
13 54 0 
39 36 0 
35 39 0 
40 39 0 
34 42 0 
24 76 0 
30 17 0 
15 19 0 
1 65 0 
52 47 0 
52 46 0 
18 71 0 
20 71 0 
45 72 0 
28 67 0 
13 50 0 
3 51 0 
28 63 0 
17 49 0 
17 52 0 
18 55 0 
20 53 0 
24 64 0 
23 64 0 
36 15 0 
13 29 0 
13 27 0 
39 34 0 
23 70 0 
41 66 0 
11 44 0 
48 40 0 
1 47 0 
1 40 0 
43 72 0 
41 39 0 
33 12 0 
12 23 0 
10 42 0 
9 43 0 
57 68 0 
41 41 0 
52 65 0 
4 61 0 
16 15 0 
16 13 0 
39 18 0 
38 18 0 
24 80 0 
29 62 0 
9 33 0 
40 53 0 
6 70 0 
47 52 0 
47 51 0 
24 46 0 
23 47 0 
17 42 0 
15 43 0 
14 44 0 
18 41 0 
16 36 0 
11 36 0 
9 37 0 
39 41 0 
12 24 0 
29 11 0 
52 51 0 
51 52 0 
56 74 0 
22 50 0 
16 11 0 
47 72 0 
42 67 0 
41 68 0 
45 71 0 
29 76 0 
12 53 0 
8 54 0 
50 18 0 
55 62 0 
5 66 0 

Triangles
983
5 232 263 1 
32 126 274 1 
10 168 374 1 
33 64 484 1 
233 234 290 1 
4 7 8 1 
48 53 300 1 
254 348 422 1 
399 107 400 1 
26 275 412 1 
42 140 337 1 
13 118 144 1 
51 362 419 1 
53 54 78 1 
90 20 109 1 
59 25 434 1 
10 164 166 1 
55 49 380 1 
42 43 281 1 
15 72 130 1 
119 36 444 1 
46 47 52 1 
70 71 134 1 
58 28 171 1 
18 103 328 1 
21 126 152 1 
91 206 351 1 
72 29 302 1 
116 31 133 1 
24 26 276 1 
43 214 287 1 
78 79 172 1 
47 148 264 1 
42 337 374 1 
118 13 119 1 
77 111 199 1 
83 146 243 1 
15 29 72 1 
275 259 412 1 
49 19 380 1 
410 81 446 1 
90 410 446 1 
36 13 149 1 
103 256 481 1 
64 27 484 1 
195 28 253 1 
195 88 217 1 
132 29 327 1 
132 56 248 1 
277 179 342 1 
71 70 138 1 
126 32 152 1 
214 43 340 1 
97 105 106 1 
31 32 45 1 
336 337 478 1 
62 363 467 1 
390 37 421 1 
36 149 170 1 
35 216 367 1 
21 40 97 1 
23 9 139 1 
258 260 262 1 
90 80 410 1 
170 175 191 1 
392 468 494 1 
41 391 421 1 
490 245 491 1 
93 12 294 1 
97 20 105 1 
49 59 434 1 
440 39 472 1 
287 96 391 1 
140 119 229 1 
43 42 340 1 
294 198 440 1 
382 93 411 1 
32 274 331 1 
142 115 209 1 
44 45 236 1 
47 16 52 1 
70 132 135 1 
223 224 301 1 
69 55 413 1 
47 46 48 1 
7 48 300 1 
8 7 300 1 
73 210 299 1 
414 248 416 1 
295 297 379 1 
141 205 269 1 
66 65 68 1 
267 354 490 1 
45 44 187 1 
398 399 400 1 
54 53 417 1 
48 46 53 1 
398 318 399 1 
52 213 417 1 
104 2 189 1 
56 132 134 1 
69 413 416 1 
138 70 148 1 
59 2 104 1 
203 159 307 1 
38 85 171 1 
92 466 504 1 
49 55 59 1 
55 2 59 1 
258 25 260 1 
109 24 276 1 
335 333 336 1 
22 243 374 1 
67 65 87 1 
63 176 309 1 
469 174 470 1 
176 63 194 1 
75 311 419 1 
217 218 241 1 
395 394 468 1 
64 240 241 1 
117 174 352 1 
111 77 268 1 
151 162 163 1 
28 58 253 1 
215 273 352 1 
220 68 429 1 
56 134 471 1 
2 55 69 1 
48 7 148 1 
2 71 148 1 
7 2 148 1 
2 69 71 1 
19 299 302 1 
72 210 381 1 
299 72 302 1 
73 299 434 1 
321 82 503 1 
9 23 318 1 
107 23 192 1 
424 184 458 1 
366 387 474 1 
266 77 267 1 
66 68 219 1 
74 82 353 1 
78 54 79 1 
79 54 213 1 
31 45 115 1 
115 45 187 1 
21 106 437 1 
154 136 461 1 
81 120 227 1 
80 90 276 1 
215 286 502 1 
143 42 243 1 
205 50 298 1 
98 313 315 1 
155 244 282 1 
179 155 188 1 
28 63 171 1 
150 151 358 1 
87 88 151 1 
87 65 88 1 
217 88 343 1 
88 65 346 1 
329 270 358 1 
112 128 177 1 
203 307 369 1 
90 109 276 1 
20 97 376 1 
91 104 189 1 
475 206 504 1 
59 91 351 1 
377 92 504 1 
14 382 411 1 
9 235 411 1 
151 88 358 1 
392 125 393 1 
162 95 196 1 
86 270 347 1 
41 287 391 1 
12 198 294 1 
106 105 198 1 
216 402 445 1 
337 61 478 1 
149 34 170 1 
212 122 321 1 
211 321 364 1 
253 277 278 1 
100 208 278 1 
117 219 312 1 
141 185 288 1 
38 33 448 1 
103 18 256 1 
17 18 328 1 
136 154 480 1 
282 368 370 1 
91 59 104 1 
402 105 445 1 
31 116 153 1 
21 97 106 1 
106 198 437 1 
224 5 301 1 
99 182 192 1 
235 452 497 1 
108 247 319 1 
116 15 293 1 
97 40 110 1 
110 202 376 1 
24 109 202 1 
82 122 199 1 
122 212 332 1 
200 220 429 1 
338 183 405 1 
200 201 246 1 
285 117 312 1 
284 326 456 1 
158 156 473 1 
52 209 213 1 
213 54 417 1 
40 116 293 1 
40 21 116 1 
173 174 469 1 
273 304 352 1 
118 43 144 1 
119 140 280 1 
13 36 119 1 
18 17 228 1 
80 60 121 1 
443 442 444 1 
84 261 466 1 
120 80 121 1 
364 384 385 1 
122 82 321 1 
182 123 211 1 
432 267 490 1 
160 159 203 1 
355 94 489 1 
392 62 467 1 
57 188 397 1 
274 126 437 1 
12 274 437 1 
111 127 199 1 
128 112 291 1 
83 129 366 1 
129 50 186 1 
97 110 376 1 
24 202 238 1 
110 40 131 1 
202 131 238 1 
15 116 133 1 
142 135 499 1 
29 15 327 1 
15 133 327 1 
134 71 471 1 
132 70 134 1 
135 142 209 1 
133 31 142 1 
448 33 484 1 
255 289 438 1 
17 137 335 1 
165 11 167 1 
71 138 148 1 
70 135 264 1 
214 96 287 1 
42 143 340 1 
334 336 478 1 
118 119 280 1 
185 141 487 1 
167 11 169 1 
148 70 264 1 
31 115 142 1 
387 23 474 1 
139 214 340 1 
144 43 145 1 
13 144 145 1 
41 34 145 1 
34 37 175 1 
146 143 243 1 
146 83 366 1 
360 1 361 1 
124 147 231 1 
47 48 148 1 
16 47 264 1 
145 34 149 1 
13 145 149 1 
151 150 162 1 
163 196 197 1 
67 151 163 1 
67 87 151 1 
32 31 152 1 
21 152 153 1 
116 21 153 1 
152 31 153 1 
159 161 307 1 
136 102 461 1 
155 179 244 1 
448 408 449 1 
156 408 448 1 
308 480 483 1 
114 92 431 1 
159 158 473 1 
157 159 473 1 
84 114 190 1 
161 204 306 1 
204 271 305 1 
158 159 160 1 
188 155 370 1 
159 157 161 1 
407 439 455 1 
150 86 162 1 
86 95 162 1 
67 163 197 1 
201 200 257 1 
27 64 165 1 
165 164 333 1 
64 11 165 1 
27 165 333 1 
166 165 167 1 
164 165 166 1 
168 10 239 1 
337 10 374 1 
168 167 169 1 
166 167 239 1 
168 169 250 1 
425 141 427 1 
170 34 175 1 
175 37 191 1 
278 277 342 1 
33 38 171 1 
279 247 314 1 
452 496 497 1 
101 3 286 1 
296 185 464 1 
233 290 292 1 
112 178 183 1 
36 170 191 1 
121 36 191 1 
176 33 309 1 
64 33 176 1 
177 127 303 1 
362 339 433 1 
297 273 378 1 
58 252 277 1 
85 38 448 1 
51 339 362 1 
245 123 491 1 
432 362 433 1 
89 265 266 1 
182 107 192 1 
99 123 182 1 
177 89 404 1 
297 378 379 1 
304 184 424 1 
186 50 388 1 
51 76 186 1 
51 186 296 1 
185 296 388 1 
129 386 387 1 
115 187 213 1 
382 44 389 1 
124 188 369 1 
124 396 397 1 
260 59 375 1 
485 154 486 1 
37 120 191 1 
120 121 191 1 
23 76 192 1 
75 99 476 1 
193 231 360 1 
3 101 361 1 
88 195 208 1 
94 270 329 1 
194 63 195 1 
63 28 195 1 
94 361 489 1 
163 162 196 1 
201 356 489 1 
101 173 447 1 
81 445 446 1 
35 367 418 1 
77 199 354 1 
246 201 459 1 
67 197 200 1 
196 95 355 1 
196 355 356 1 
110 131 202 1 
130 357 451 1 
160 203 368 1 
409 244 460 1 
306 305 456 1 
307 306 456 1 
83 269 298 1 
269 205 298 1 
91 189 206 1 
207 131 293 1 
15 130 293 1 
270 94 347 1 
100 62 208 1 
209 115 213 1 
52 16 209 1 
357 238 451 1 
130 72 381 1 
211 364 385 1 
212 180 332 1 
211 123 212 1 
123 180 212 1 
187 14 213 1 
14 79 213 1 
139 9 214 1 
93 96 214 1 
174 173 215 1 
215 233 273 1 
34 41 421 1 
216 35 402 1 
194 195 242 1 
176 194 240 1 
218 217 344 1 
11 64 218 1 
246 113 312 1 
117 66 219 1 
219 68 220 1 
67 200 429 1 
172 79 221 1 
79 14 221 1 
221 14 235 1 
457 172 497 1 
223 301 330 1 
5 300 301 1 
279 314 465 1 
383 224 465 1 
290 291 292 1 
137 17 226 1 
27 137 226 1 
216 81 227 1 
402 35 418 1 
18 228 493 1 
229 230 493 1 
256 18 441 1 
230 18 493 1 
261 98 315 1 
229 119 230 1 
94 310 361 1 
147 1 231 1 
353 82 372 1 
8 300 492 1 
173 101 286 1 
273 233 292 1 
3 234 502 1 
214 9 411 1 
235 341 452 1 
236 331 389 1 
93 382 389 1 
100 237 363 1 
100 57 237 1 
131 207 238 1 
350 130 381 1 
10 166 239 1 
167 168 239 1 
64 176 240 1 
218 64 241 1 
217 241 242 1 
240 194 241 1 
195 217 242 1 
241 194 242 1 
22 83 243 1 
243 42 374 1 
307 1 369 1 
156 158 408 1 
180 123 245 1 
181 490 491 1 
220 200 312 1 
200 246 312 1 
108 319 398 1 
320 222 341 1 
30 302 428 1 
29 132 248 1 
249 168 250 1 
424 11 450 1 
83 22 269 1 
169 11 425 1 
253 58 277 1 
85 251 252 1 
58 171 252 1 
171 85 252 1 
278 342 430 1 
342 57 430 1 
322 323 324 1 
255 322 453 1 
255 256 289 1 
422 423 500 1 
27 308 483 1 
283 136 481 1 
197 196 257 1 
200 197 257 1 
260 261 262 1 
26 24 275 1 
25 259 275 1 
259 25 317 1 
25 59 260 1 
262 259 317 1 
289 256 441 1 
442 18 444 1 
261 60 262 1 
60 259 262 1 
263 232 371 1 
301 300 359 1 
209 16 264 1 
135 209 264 1 
89 177 303 1 
77 266 268 1 
89 266 338 1 
266 265 268 1 
75 181 491 1 
181 362 432 1 
111 268 420 1 
265 127 420 1 
250 169 425 1 
250 425 427 1 
208 62 329 1 
208 329 358 1 
204 161 271 1 
156 484 485 1 
284 272 462 1 
284 271 486 1 
174 215 352 1 
297 184 304 1 
12 93 389 1 
274 12 389 1 
349 73 435 1 
210 73 349 1 
60 80 412 1 
80 276 412 1 
251 179 277 1 
252 251 277 1 
195 253 278 1 
208 195 278 1 
224 223 279 1 
247 108 314 1 
118 280 281 1 
43 118 281 1 
280 140 281 1 
140 42 281 1 
160 282 408 1 
158 160 408 1 
256 255 283 1 
283 255 316 1 
154 272 486 1 
272 461 462 1 
447 173 469 1 
174 117 470 1 
215 173 286 1 
233 215 502 1 
41 145 287 1 
145 43 287 1 
205 141 288 1 
50 205 288 1 
284 322 324 1 
98 423 443 1 
290 225 291 1 
225 128 291 1 
112 183 291 1 
291 183 292 1 
379 378 454 1 
131 40 293 1 
130 207 293 1 
294 440 472 1 
96 93 294 1 
273 297 304 1 
426 424 458 1 
296 186 388 1 
296 295 454 1 
273 292 378 1 
295 184 297 1 
50 129 298 1 
129 83 298 1 
210 72 299 1 
19 49 299 1 
263 6 492 1 
5 263 300 1 
330 359 495 1 
496 223 498 1 
302 29 428 1 
30 19 302 1 
265 89 303 1 
127 265 303 1 
66 117 352 1 
352 304 450 1 
284 324 407 1 
271 284 305 1 
188 368 369 1 
204 305 306 1 
439 190 455 1 
161 306 307 1 
226 17 328 1 
27 226 308 1 
171 63 309 1 
33 171 309 1 
125 193 310 1 
94 125 310 1 
99 192 476 1 
311 75 477 1 
219 220 312 1 
113 285 312 1 
36 121 313 1 
121 60 315 1 
224 279 465 1 
371 232 372 1 
313 121 315 1 
60 261 315 1 
102 136 316 1 
136 283 316 1 
25 258 317 1 
258 262 317 1 
341 222 452 1 
9 318 341 1 
319 320 341 1 
279 223 320 1 
319 247 320 1 
247 279 320 1 
211 212 321 1 
364 321 503 1 
322 102 453 1 
322 255 323 1 
324 323 406 1 
348 254 438 1 
305 284 456 1 
401 254 501 1 
500 423 501 1 
323 401 406 1 
326 407 455 1 
84 190 439 1 
133 142 499 1 
327 133 499 1 
103 308 328 1 
308 226 328 1 
88 208 358 1 
125 392 494 1 
457 497 498 1 
436 53 457 1 
45 32 331 1 
236 45 331 1 
199 122 354 1 
122 332 354 1 
137 27 333 1 
17 334 479 1 
140 229 337 1 
334 335 336 1 
137 333 335 1 
334 17 335 1 
333 164 336 1 
164 10 336 1 
229 61 337 1 
336 10 337 1 
89 338 404 1 
178 112 404 1 
266 432 433 1 
183 338 339 1 
146 139 340 1 
143 146 340 1 
235 9 341 1 
385 108 398 1 
179 188 342 1 
188 57 342 1 
344 343 345 1 
218 344 345 1 
66 218 345 1 
217 343 344 1 
65 66 346 1 
66 345 346 1 
345 343 346 1 
343 88 346 1 
95 86 347 1 
201 257 356 1 
423 422 442 1 
438 289 441 1 
275 24 435 1 
73 434 435 1 
130 350 357 1 
24 238 357 1 
59 351 375 1 
260 475 504 1 
11 218 352 1 
218 66 352 1 
383 353 463 1 
74 353 365 1 
267 77 354 1 
332 180 354 1 
347 94 355 1 
95 347 355 1 
257 196 356 1 
101 201 489 1 
350 349 357 1 
349 24 357 1 
270 86 358 1 
86 150 358 1 
78 172 457 1 
330 301 359 1 
231 1 360 1 
310 193 360 1 
1 3 361 1 
310 360 361 1 
76 51 419 1 
362 181 419 1 
363 237 467 1 
62 100 363 1 
232 5 373 1 
372 373 463 1 
365 353 383 1 
365 364 503 1 
186 76 386 1 
129 186 386 1 
390 367 403 1 
227 390 403 1 
1 147 369 1 
282 160 368 1 
147 124 369 1 
368 203 369 1 
155 282 370 1 
368 188 370 1 
6 263 371 1 
372 232 373 1 
5 224 383 1 
373 5 383 1 
168 249 374 1 
249 22 374 1 
260 375 475 1 
375 351 475 1 
202 109 376 1 
109 20 376 1 
92 377 431 1 
377 206 431 1 
292 183 378 1 
378 183 454 1 
183 339 454 1 
51 296 454 1 
19 30 380 1 
30 248 414 1 
349 350 381 1 
210 349 381 1 
187 44 382 1 
14 187 382 1 
314 108 384 1 
107 182 385 1 
365 383 465 1 
384 364 465 1 
182 211 385 1 
384 108 385 1 
146 366 474 1 
366 129 387 1 
386 76 387 1 
76 23 387 1 
50 288 388 1 
288 185 388 1 
331 274 389 1 
44 236 389 1 
120 37 390 1 
227 120 390 1 
39 367 391 1 
391 367 421 1 
62 392 393 1 
329 62 393 1 
94 329 393 1 
125 94 393 1 
231 193 494 1 
193 125 494 1 
124 394 396 1 
394 395 396 1 
188 124 397 1 
395 237 396 1 
396 237 397 1 
237 57 397 1 
341 318 398 1 
319 341 398 1 
23 107 399 1 
318 23 399 1 
107 385 400 1 
385 398 400 1 
441 18 442 1 
254 401 438 1 
198 105 402 1 
418 39 440 1 
216 227 403 1 
367 216 403 1 
112 177 404 1 
178 404 405 1 
183 178 405 1 
404 338 405 1 
406 401 407 1 
326 284 407 1 
401 325 407 1 
324 406 407 1 
179 251 460 1 
408 282 409 1 
282 244 409 1 
460 251 488 1 
120 81 410 1 
80 120 410 1 
235 14 411 1 
93 214 411 1 
259 60 412 1 
276 26 412 1 
380 30 414 1 
71 69 471 1 
414 413 415 1 
55 380 415 1 
413 55 415 1 
380 414 415 1 
413 414 416 1 
248 56 416 1 
53 46 417 1 
46 52 417 1 
367 39 418 1 
198 402 418 1 
181 75 419 1 
311 76 419 1 
127 111 420 1 
268 265 420 1 
37 34 421 1 
367 390 421 1 
254 422 500 1 
84 325 501 1 
422 348 442 1 
98 261 423 1 
141 269 427 1 
425 424 426 1 
249 250 427 1 
11 424 425 1 
141 425 487 1 
425 426 487 1 
22 249 427 1 
269 22 427 1 
248 30 428 1 
29 248 428 1 
68 65 429 1 
65 67 429 1 
57 100 430 1 
100 278 430 1 
190 114 431 1 
266 267 432 1 
180 245 490 1 
339 338 433 1 
338 266 433 1 
299 49 434 1 
25 275 434 1 
434 275 435 1 
24 349 435 1 
436 330 495 1 
300 53 495 1 
198 12 437 1 
126 21 437 1 
401 323 438 1 
323 255 438 1 
407 325 439 1 
325 84 439 1 
96 294 472 1 
198 418 440 1 
423 442 443 1 
438 441 442 1 
348 438 442 1 
313 98 443 1 
18 230 444 1 
230 119 444 1 
313 443 444 1 
36 313 444 1 
105 20 445 1 
81 216 445 1 
445 20 446 1 
20 90 446 1 
447 246 459 1 
113 246 447 1 
251 85 449 1 
27 483 484 1 
409 460 488 1 
85 448 449 1 
11 352 450 1 
304 424 450 1 
207 130 451 1 
238 207 451 1 
320 223 496 1 
497 496 498 1 
316 255 453 1 
102 316 453 1 
339 51 454 1 
295 379 454 1 
1 307 456 1 
326 455 456 1 
53 78 457 1 
330 436 498 1 
458 184 464 1 
295 296 464 1 
201 101 459 1 
101 447 459 1 
244 179 460 1 
449 408 488 1 
322 284 462 1 
272 154 461 1 
461 102 462 1 
102 322 462 1 
353 372 463 1 
373 383 463 1 
184 295 464 1 
426 458 464 1 
364 365 465 1 
314 384 465 1 
92 114 466 1 
114 84 466 1 
237 395 467 1 
467 395 468 1 
468 394 494 1 
392 467 468 1 
285 113 470 1 
447 469 470 1 
113 447 470 1 
117 285 470 1 
69 416 471 1 
416 56 471 1 
39 391 472 1 
391 96 472 1 
480 154 484 1 
483 480 484 1 
139 146 474 1 
23 139 474 1 
351 206 475 1 
206 377 504 1 
192 76 477 1 
75 476 477 1 
476 192 477 1 
76 311 477 1 
478 61 479 1 
61 228 479 1 
334 478 479 1 
228 17 479 1 
308 103 480 1 
136 480 481 1 
480 103 481 1 
283 481 482 1 
481 256 482 1 
256 283 482 1 
484 154 485 1 
157 485 486 1 
156 448 484 1 
473 156 485 1 
272 284 486 1 
157 473 485 1 
271 161 486 1 
161 157 486 1 
426 464 487 1 
464 185 487 1 
408 409 488 1 
251 449 488 1 
361 101 489 1 
356 355 489 1 
354 180 490 1 
181 432 490 1 
123 99 491 1 
99 75 491 1 
6 8 492 1 
300 263 492 1 
61 229 493 1 
228 61 493 1 
394 124 494 1 
124 231 494 1 
53 436 495 1 
359 300 495 1 
452 222 496 1 
222 320 496 1 
221 235 497 1 
172 221 497 1 
223 330 498 1 
436 457 498 1 
132 327 499 1 
135 132 499 1 
423 261 501 1 
325 401 501 1 
261 84 501 1 
254 500 501 1 
286 3 502 1 
234 233 502 1 
74 365 503 1 
82 74 503 1 
466 261 504 1 
261 260 504 1 

End
