MeshVersionFormatted 2

Dimension 2

Vertices
128
0 0 0 
0 1 0 
1 0 0 
1 1 0 
0.531693472090823 0.464339121677297 0 
0.21485030671102 0.473677785576952 0 
0.198858607745598 0.920194097720267 0 
0.359935300759911 0.846186712240974 0 
0.620868556779687 0.147038178655354 0 
0.867000335703604 0.764244514297922 0 
0.543259987182226 0.367503891109958 0 
0.189672536393323 0.738212225714896 0 
0.482558671834468 0.473403118991668 0 
0.0787377544480728 0.280312509537034 0 
0.8684041871395 0.289071321756645 0 
0.682821131015961 0.402783288064211 0 
0.433393353068636 0.587969603564562 0 
0.4315317239906 0.339762565996277 0 
0.715750602740562 0.533310953093051 0 
0.0614337595751824 0.303506576738792 0 
0.365184484389782 0.159733878597369 0 
0.307687612537004 0.358317819757683 0 
0.954863124485 0.724112674336985 0 
0.827143162327952 0.52348399304178 0 
0.204809717093417 0.989867854853969 0 
0.227271340067751 0.950682088686788 0 
0.647816400646992 0.34232612079226 0 
0.0605792413098544 0.521408734397412 0 
0.729087191381573 0.524735251930296 0 
0.814813684499649 0.614001892147587 0 
0.606067079683828 0.767082735679189 0 
0.453993346964934 0.638813440351573 0 
0.581621753593555 0.0599078341013825 0 
0.809656056398205 0.191656239509262 0 
0.0969267860957671 0.892544328135014 0 
0.47499008148442 0.809686574907681 0 
0.0902432325205237 0.3022247993408 0 
0.281838435010834 0.665883358256783 0 
0.537003692739647 0.379009369182409 0 
0.411969359416486 0.360057374797815 0 
0.702688680684835 0.631336405529954 0 
0.924527726065859 0.461317789239174 0 
0.140293588061159 0.119449446089053 0 
0.980834376049074 0.958891567735832 0 
0.962858973967711 0.762901699880978 0 
0.547532578508866 0.277321695608386 0 
0.422376171147801 0.727591784417249 0 
0.859828485976745 0.0125125888851588 0 
0.327433088167974 0.299539170506912 0 
0.425244911038545 0.0446790978728599 0 
0.32898953215125 0.15118869594409 0 
0.850093081453902 0.184301278725547 0 
0.607318338572344 0.406384472182379 0 
0.269142735068819 0.410534989471114 0 
0.660390026551103 0.0390026551103244 0 
0.0337839899899289 0.6120792260506 0 
0.825495162816248 0.93191320535905 0 
0.0987884151738029 0.46150090029603 0 
0.317667165135655 0.812494277779473 0 
0.950254829554125 0.734336375011444 0 
0.098025452436903 0.434522537919248 0 
0.91521958067568 0.183935056611835 0 
0.201879940183721 0.306100650044252 0 
0.128208258308664 0.930936613055818 0 
0.195623645741142 0.443159276100955 0 
0.895352031006806 0.49488814966277 0 
0.706381420331431 0.906338694418165 0 
0.709158604693747 0.875301370281075 0 
0.0625 0 0 
0.0625 1 0 
0 0.0625 0 
1 0.0625 0 
0.125 0 0 
0.125 1 0 
0 0.125 0 
1 0.125 0 
0.1875 0 0 
0.1875 1 0 
0 0.1875 0 
1 0.1875 0 
0.25 0 0 
0.25 1 0 
0 0.25 0 
1 0.25 0 
0.3125 0 0 
0.3125 1 0 
0 0.3125 0 
1 0.3125 0 
0.375 0 0 
0.375 1 0 
0 0.375 0 
1 0.375 0 
0.4375 0 0 
0.4375 1 0 
0 0.4375 0 
1 0.4375 0 
0.5 0 0 
0.5 1 0 
0 0.5 0 
1 0.5 0 
0.5625 0 0 
0.5625 1 0 
0 0.5625 0 
1 0.5625 0 
0.625 0 0 
0.625 1 0 
0 0.625 0 
1 0.625 0 
0.6875 0 0 
0.6875 1 0 
0 0.6875 0 
1 0.6875 0 
0.75 0 0 
0.75 1 0 
0 0.75 0 
1 0.75 0 
0.8125 0 0 
0.8125 1 0 
0 0.8125 0 
1 0.8125 0 
0.875 0 0 
0.875 1 0 
0 0.875 0 
1 0.875 0 
0.9375 0 0 
0.9375 1 0 
0 0.9375 0 
1 0.9375 0 

Triangles
252
37 14 63 1 
12 7 35 1 
31 32 41 1 
15 27 34 1 
60 23 116 1 
79 14 83 1 
56 12 111 1 
13 5 17 1 
38 12 56 1 
5 13 39 1 
51 81 85 1 
1 87 91 1 
61 37 63 1 
11 27 53 1 
15 84 88 1 
7 12 59 1 
67 31 68 1 
38 47 59 1 
20 14 37 1 
20 61 91 1 
1 79 83 1 
18 21 46 1 
62 48 72 1 
5 39 53 1 
15 52 62 1 
18 11 39 1 
15 62 84 1 
19 29 30 1 
27 9 34 1 
11 18 46 1 
23 10 30 1 
17 5 32 1 
71 43 75 1 
1 69 71 1 
40 22 49 1 
21 18 49 1 
40 13 54 1 
17 6 54 1 
30 24 66 1 
10 45 120 1 
16 24 29 1 
16 15 24 1 
2 82 86 1 
26 8 86 1 
25 7 26 1 
47 8 59 1 
21 9 46 1 
15 16 27 1 
54 6 65 1 
36 8 47 1 
29 24 30 1 
19 16 29 1 
32 31 47 1 
62 76 80 1 
31 36 47 1 
30 10 41 1 
6 17 38 1 
19 30 41 1 
43 69 73 1 
9 21 50 1 
77 1 81 1 
33 9 50 1 
1 119 123 1 
2 74 78 1 
2 78 82 1 
10 57 68 1 
14 43 63 1 
69 43 71 1 
28 6 38 1 
17 32 38 1 
27 16 53 1 
16 19 53 1 
39 13 40 1 
18 39 40 1 
5 19 41 1 
32 5 41 1 
15 42 66 1 
24 15 66 1 
49 22 63 1 
18 40 49 1 
64 7 78 1 
2 114 118 1 
108 3 112 1 
116 3 120 1 
9 27 46 1 
27 11 46 1 
12 38 59 1 
38 32 47 1 
15 34 52 1 
85 1 89 1 
51 43 81 1 
43 51 63 1 
34 9 55 1 
50 21 51 1 
51 49 63 1 
21 49 51 1 
52 48 62 1 
34 48 52 1 
19 5 53 1 
39 11 53 1 
13 17 54 1 
22 40 54 1 
109 1 113 1 
9 33 55 1 
1 103 107 1 
28 38 56 1 
57 67 68 1 
82 26 86 1 
6 28 58 1 
1 83 87 1 
26 7 59 1 
8 26 59 1 
45 10 60 1 
10 23 60 1 
22 54 63 1 
20 37 61 1 
72 48 125 1 
76 3 80 1 
63 54 65 1 
61 63 65 1 
0 0 63 1 
7 25 78 1 
35 7 64 1 
58 61 65 1 
6 58 65 1 
66 42 100 1 
23 30 108 1 
2 86 90 1 
2 94 98 1 
31 41 68 1 
41 10 68 1 
73 1 77 1 
69 1 73 1 
35 64 70 1 
2 70 74 1 
1 75 79 1 
1 71 75 1 
80 3 84 1 
72 3 76 1 
43 73 77 1 
50 51 89 1 
70 64 74 1 
74 64 78 1 
43 14 79 1 
75 43 79 1 
62 72 76 1 
42 15 92 1 
43 77 81 1 
50 89 93 1 
90 8 94 1 
86 8 90 1 
91 61 95 1 
14 20 83 1 
62 80 84 1 
15 88 92 1 
33 50 97 1 
81 1 85 1 
78 25 82 1 
25 26 82 1 
0 0 82 1 
103 56 107 1 
61 58 95 1 
96 3 100 1 
84 3 88 1 
50 93 97 1 
51 85 89 1 
36 31 102 1 
2 90 94 1 
87 20 91 1 
83 20 87 1 
88 3 92 1 
42 96 100 1 
33 101 105 1 
89 1 93 1 
8 36 94 1 
98 36 102 1 
95 58 99 1 
1 91 95 1 
92 3 96 1 
30 66 104 1 
93 1 97 1 
33 97 101 1 
2 98 102 1 
2 106 110 1 
1 95 99 1 
58 28 99 1 
23 108 112 1 
42 92 96 1 
55 33 105 1 
97 1 101 1 
4 2 126 1 
94 36 98 1 
28 56 103 1 
1 99 103 1 
100 3 104 1 
30 104 108 1 
34 55 113 1 
101 1 105 1 
31 67 102 1 
2 102 106 1 
99 28 103 1 
107 56 111 1 
104 3 108 1 
66 100 104 1 
55 109 113 1 
105 1 109 1 
102 67 106 1 
2 110 114 1 
1 107 111 1 
2 1 127 1 
57 10 124 1 
112 3 116 1 
1 3 125 1 
55 105 109 1 
106 67 110 1 
67 57 114 1 
1 115 119 1 
1 111 115 1 
45 60 116 1 
124 3 128 1 
113 1 117 1 
48 34 117 1 
110 67 114 1 
2 122 126 1 
111 12 115 1 
12 35 119 1 
10 120 124 1 
23 112 116 1 
34 113 117 1 
117 1 121 1 
114 57 118 1 
2 118 122 1 
115 12 119 1 
35 70 127 1 
45 116 120 1 
120 3 124 1 
48 117 121 1 
121 1 125 1 
118 57 122 1 
57 44 126 1 
119 35 123 1 
1 123 127 1 
4 44 128 1 
44 57 124 1 
48 121 125 1 
3 72 125 1 
122 57 126 1 
44 4 126 1 
123 35 127 1 
70 2 127 1 
3 4 128 1 
44 124 128 1 

End
