MeshVersionFormatted 2

Dimension 2

Vertices
14
0 0 0 
0.5 0 0 
1 0 0 
0.25 0.25 0 
0.75 0.25 0 
0 0.5 0 
0.5 0.5 0 
1 0.5 0 
0.25 0.75 0 
0.75 0.75 0 
0 1 0 
0.5 1 0 
1 1 0 
0.5 0.6 0 

Triangles
18
429 4 1 429 
5 4 2 750820736 
3 5 2 429 
4 6 1 1 
5 7 4 1 
8 5 3 201326604 
9 6 4 46727 
7 9 4 750854928 
9 7 14 429 
5 10 7 750820736 
8 10 5 429 
9 11 6 1 
9 12 11 1 
10 12 9 1 
13 12 10 1 
7 10 14 1 
10 9 14 4 
0 0 0 8 

Edges
120
1 4 1 
4 7 1 
7 10 1 
10 13 1 
10 13 1 
10 13 1 
10 13 1 
10 13 1 
10 13 1 
10 13 1 
10 13 1 
10 13 1 
10 13 1 
10 13 1 
10 13 1 
10 13 1 
10 13 1 
10 13 1 
10 13 1 
10 13 1 
10 13 1 
10 13 1 
10 13 1 
10 13 1 
10 13 1 
10 13 1 
10 13 1 
10 13 1 
10 13 1 
10 13 1 
10 13 1 
10 13 1 
10 13 1 
10 13 1 
10 13 1 
10 13 1 
10 13 1 
10 13 1 
10 13 1 
10 13 1 
10 13 1 
10 13 1 
10 13 1 
10 13 1 
10 13 1 
10 13 1 
10 13 1 
10 13 1 
10 13 1 
10 13 1 
10 13 1 
10 13 1 
10 13 1 
10 13 1 
10 13 1 
10 13 1 
10 13 1 
10 13 1 
10 13 1 
10 13 1 
10 13 1 
10 13 1 
10 13 1 
10 13 1 
10 13 1 
10 13 1 
10 13 1 
10 13 1 
10 13 1 
10 13 1 
10 13 1 
10 13 1 
10 13 1 
10 13 1 
10 13 1 
10 13 1 
10 13 1 
10 13 1 
10 13 1 
10 13 1 
10 13 1 
10 13 1 
10 13 1 
10 13 1 
10 13 1 
10 13 1 
10 13 1 
10 13 1 
10 13 1 
10 13 1 
10 13 1 
10 13 1 
10 13 1 
10 13 1 
10 13 1 
10 13 1 
10 13 1 
10 13 1 
10 13 1 
10 13 1 
10 13 1 
10 13 1 
10 13 1 
10 13 1 
10 13 1 
10 13 1 
10 13 1 
10 13 1 
10 13 1 
10 13 1 
10 13 1 
10 13 1 
10 13 1 
10 13 1 
10 13 1 
10 13 1 
10 13 1 
10 13 1 
10 13 1 
10 13 1 

End
