 MeshVersionFormatted 2
 Dimension
 2
 Vertices
 196
                    04                         05                                 1
                  1.4                         05                                 2
                  1.4                       1.5                                 3
                    04                       1.5                                 4
                    04                         05                                  5
                  1.4                         05                                  6
                  1.4                       1.5                                  7
                    04                       1.5                                  8
                  0525                         05                                 1
                   065                         05                                 1
                  0775                         05                                 1
                    09                         05                                 1
                1.025                         05                                 1
                 1.15                         05                                 1
                1.275                         05                                 1
                  1.4                       0625                                 2
                  1.4                        075                                 2
                  1.4                       0875                                 2
                  1.4                         1                                 2
                  1.4                     1.125                                 2
                  1.4                      1.25                                 2
                  1.4                     1.375                                 2
                1.275                       1.5                                 3
                 1.15                       1.5                                 3
                1.025                       1.5                                 3
                    09                       1.5                                 3
                  0775                       1.5                                 3
                   065                       1.5                                 3
                  0525                       1.5                                 3
                    04                     1.375                                 4
                    04                      1.25                                 4
                    04                     1.125                                 4
                    04                         1                                 4
                    04                       0875                                 4
                    04                        075                                 4
                    04                       0625                                 4
                  0525                         05                                 5
                   065                         05                                 5
                  0775                         05                                 5
                    09                         05                                 5
                1.025                         05                                 5
                 1.15                         05                                 5
                1.275                         05                                 5
                  1.4                       0625                                 6
                  1.4                        075                                 6
                  1.4                       0875                                 6
                  1.4                         1                                 6
                  1.4                     1.125                                 6
                  1.4                      1.25                                 6
                  1.4                     1.375                                 6
                1.275                       1.5                                 7
                 1.15                       1.5                                 7
                1.025                       1.5                                 7
                    09                       1.5                                 7
                  0775                       1.5                                 7
                   065                       1.5                                 7
                  0525                       1.5                                 7
                    04                     1.375                                 8
                    04                      1.25                                 8
                    04                     1.125                                 8
                    04                         1                                 8
                    04                       0875                                 8
                    04                        075                                 8
                    04                       0625                                 8
                 09625            060825317547305                                 1
      1.2787408590475           1.0688788296334                                 1
                 08375           1.3917468245269                                 1
       051072493917578            093590513689377                                 1
      1.0871891340152           1.3955068139136                                 1
       051826268510179            1.169225973923                                 1
       070985599386462            060703574621653                                 1
      1.2917468245269                      08125                                 1
       050948519218871            070334206559767                                 1
                 05875           1.3917468245269                                 1
      1.2792304632363           1.3130906423765                                 1
      1.2119703288399            060584650563198                                 1
      1.0874117214733            060785206383288                                 1
      1.0222382678779            071485350682715                                 1
       089950385161395            071625158053317                                 1
       095921000088099            082285559848492                                 1
        08349971181004            082327435623118                                 1
       089950740807665            093272451327638                                 1
      1.0130554540845            093270179576679                                 1
       095698864520732           1.0431512462683                                 1
       083649934221399           1.0415320740798                                 1
       089891466457022           1.1498776471079                                 1
      1.0204620531434           1.1518782647271                                 1
       077487329973179           1.1495570017562                                 1
       071231210699096            1.041316568304                                 1
                 09625           1.2577722283114                                 1
                   065           1.1495190528383                                 1
       071331767730642           1.2523710758224                                 1
      1.0858813422982           1.2503445671756                                 1
      1.1558138215827           1.1422638897929                                 1
       058757104017908           1.0449975244452                                 1
                   065            093301270189222                                 1
       057787321937212            082321404805219                                 1
       070148401430164            081788298199711                                 1
       063559568229306            071352649752661                                 1
       1.164667250201            072906600610681                                 1
      1.2917468245269                    1.1875                                 1
      1.1774226364817            1.026552786311                                 1
      1.2628769455225            093820175320693                                 1
      1.1819074653434            084519107185259                                 1
                 07125           1.3917468245269                                 1
                 09625           1.3917468245269                                 1
       083694078121407            060802851246836                                 1
                 08375           1.2577722283114                                 1
       077246666494727            093162386596345                                 1
       077294254288411            071579336652866                                 1
      1.2081462788186           1.4070743513265                                 1
       050341578305721           1.3066379931605                                 1
      1.2959004857786            068793217790332                                 1
       059113335612849            060282691355942                                 1
      1.1923273756501            1.243710820392                                 1
        06010889394411           1.2499266504671                                 1
       1.073926010309            082239923368303                                 1
       048453570123751                    1.0625                                 1
      1.0718400777346           1.0422758636583                                 1
       047733755452579                      08125                                 1
       049150635094611            059150635094611                                 1
       049150635094611           1.4084936490539                                 1
      1.3084936490539           1.4084936490539                                 1
      1.3084936490539            059150635094611                                 1
      1.1301714315793            093455375074643                                 1
                  0775           1.3247595264192                                 1
                1.025           1.3247595264192                                 1
                    09           1.3247595264192                                 1
       066016083212445           1.3246932293951                                 1
      1.1489644266063           1.3253550026153                                 1
                 09625            060825317547305                                 2
      1.2787408590475           1.0688788296334                                 2
                 08375           1.3917468245269                                 2
       051072493917578            093590513689377                                 2
      1.0871891340152           1.3955068139136                                 2
       051826268510179            1.169225973923                                 2
       070985599386462            060703574621653                                 2
      1.2917468245269                      08125                                 2
       050948519218871            070334206559767                                 2
                 05875           1.3917468245269                                 2
      1.2792304632363           1.3130906423765                                 2
      1.2119703288399            060584650563198                                 2
      1.0874117214733            060785206383288                                 2
      1.0222382678779            071485350682715                                 2
       089950385161395            071625158053317                                 2
       095921000088099            082285559848492                                 2
        08349971181004            082327435623118                                 2
       089950740807665            093272451327638                                 2
      1.0130554540845            093270179576679                                 2
       095698864520732           1.0431512462683                                 2
       083649934221399           1.0415320740798                                 2
       089891466457022           1.1498776471079                                 2
      1.0204620531434           1.1518782647271                                 2
       077487329973179           1.1495570017562                                 2
       071231210699096            1.041316568304                                 2
                 09625           1.2577722283114                                 2
                   065           1.1495190528383                                 2
       071331767730642           1.2523710758224                                 2
      1.0858813422982           1.2503445671756                                 2
      1.1558138215827           1.1422638897929                                 2
       058757104017908           1.0449975244452                                 2
                   065            093301270189222                                 2
       057787321937212            082321404805219                                 2
       070148401430164            081788298199711                                 2
       063559568229306            071352649752661                                 2
       1.164667250201            072906600610681                                 2
      1.2917468245269                    1.1875                                 2
      1.1774226364817            1.026552786311                                 2
      1.2628769455225            093820175320693                                 2
      1.1819074653434            084519107185259                                 2
                 07125           1.3917468245269                                 2
                 09625           1.3917468245269                                 2
       083694078121407            060802851246836                                 2
                 08375           1.2577722283114                                 2
       077246666494727            093162386596345                                 2
       077294254288411            071579336652866                                 2
      1.2081462788186           1.4070743513265                                 2
       050341578305721           1.3066379931605                                 2
      1.2959004857786            068793217790332                                 2
       059113335612849            060282691355942                                 2
      1.1923273756501            1.243710820392                                 2
        06010889394411           1.2499266504671                                 2
       1.073926010309            082239923368303                                 2
       048453570123751                    1.0625                                 2
      1.0718400777346           1.0422758636583                                 2
       047733755452579                      08125                                 2
       049150635094611            059150635094611                                 2
       049150635094611           1.4084936490539                                 2
      1.3084936490539           1.4084936490539                                 2
      1.3084936490539            059150635094611                                 2
      1.1301714315793            093455375074643                                 2
                  0775           1.3247595264192                                 2
                1.025           1.3247595264192                                 2
                    09           1.3247595264192                                 2
       066016083212445           1.3246932293951                                 2
      1.1489644266063           1.3253550026153                                 2
 Edges
 64
 1 9 1
 9 10 1
 10 11 1
 11 12 1
 12 13 1
 13 14 1
 14 15 1
 15 2 1
 2 16 2
 16 17 2
 17 18 2
 18 19 2
 19 20 2
 20 21 2
 21 22 2
 22 3 2
 3 23 3
 23 24 3
 24 25 3
 25 26 3
 26 27 3
 27 28 3
 28 29 3
 29 4 3
 4 30 4
 30 31 4
 31 32 4
 32 33 4
 33 34 4
 34 35 4
 35 36 4
 36 1 4
 5 37 5
 37 38 5
 38 39 5
 39 40 5
 40 41 5
 41 42 5
 42 43 5
 43 6 5
 6 44 6
 44 45 6
 45 46 6
 46 47 6
 47 48 6
 48 49 6
 49 50 6
 50 7 6
 7 51 7
 51 52 7
 52 53 7
 53 54 7
 54 55 7
 55 56 7
 56 57 7
 57 8 7
 8 58 8
 58 59 8
 59 60 8
 60 61 8
 61 62 8
 62 63 8
 63 64 8
 64 5 8
 Triangles
 324
 100 113 72 1
 72 104 100 1
 66 101 94 1
 70 95 91 1
 94 102 66 1
 70 118 95 1
 19 103 18 1
 73 99 97 1
 71 110 99 1
 97 120 73 1
 18 103 72 1
 66 103 19 1
 68 97 96 1
 68 96 95 1
 81 109 98 1
 99 110 98 1
 76 113 100 1
 102 103 66 1
 98 109 96 1
 98 110 81 1
 102 125 103 1
 103 125 104 1
 101 115 94 1
 91 116 70 1
 97 98 96 1
 112 116 74 1
 116 129 74 1
 104 117 100 1
 103 104 72 1
 97 99 98 1
 99 114 71 1
 79 110 107 1
 107 110 71 1
 81 110 79 1
 20 101 66 1
 27 105 67 1
 77 100 78 1
 76 77 14 1
 13 77 65 1
 14 77 13 1
 21 101 20 1
 74 105 28 1
 76 100 77 1
 77 78 65 1
 25 106 69 1
 67 106 26 1
 75 101 21 1
 27 67 26 1
 78 79 65 1
 79 107 65 1
 20 66 19 1
 84 87 86 1
 88 89 85 1
 65 107 12 1
 28 105 27 1
 87 90 86 1
 87 94 93 1
 29 74 28 1
 80 81 79 1
 11 71 10 1
 15 76 14 1
 82 109 81 1
 88 108 92 1
 13 65 12 1
 88 92 91 1
 11 107 71 1
 80 82 81 1
 83 84 82 1
 84 85 82 1
 12 107 11 1
 26 106 25 1
 34 68 33 1
 86 88 85 1
 22 75 21 1
 25 69 24 1
 36 73 35 1
 80 83 82 1
 32 70 31 1
 84 86 85 1
 89 109 85 1
 86 108 88 1
 95 96 89 1
 18 72 17 1
 78 80 79 1
 90 108 86 1
 88 91 89 1
 96 109 89 1
 87 93 90 1
 85 109 82 1
 91 95 89 1
 94 119 102 1
 111 130 75 1
 75 130 115 1
 31 112 30 1
 24 111 23 1
 17 113 16 1
 95 118 68 1
 10 114 9 1
 71 114 10 1
 68 120 97 1
 70 112 31 1
 69 111 24 1
 72 113 17 1
 83 125 119 1
 73 114 99 1
 100 117 78 1
 80 117 83 1
 32 118 70 1
 68 118 33 1
 83 119 84 1
 87 119 94 1
 73 120 35 1
 34 120 68 1
 3 123 22 1
 23 123 3 1
 30 122 4 1
 2 124 15 1
 1 121 36 1
 9 121 1 1
 4 122 29 1
 16 124 2 1
 117 125 83 1
 75 115 101 1
 94 115 93 1
 92 116 91 1
 119 125 102 1
 78 117 80 1
 70 116 112 1
 33 118 32 1
 84 119 87 1
 104 125 117 1
 112 122 30 1
 113 124 16 1
 111 123 23 1
 35 120 34 1
 15 124 76 1
 29 122 74 1
 36 121 73 1
 22 123 75 1
 114 121 9 1
 126 129 92 1
 126 128 67 1
 108 128 126 1
 105 126 67 1
 127 128 90 1
 93 127 90 1
 90 128 108 1
 106 127 69 1
 106 128 127 1
 67 128 106 1
 108 126 92 1
 105 129 126 1
 74 129 105 1
 74 122 112 1
 75 123 111 1
 76 124 113 1
 93 130 127 1
 127 130 69 1
 73 121 114 1
 69 130 111 1
 92 129 116 1
 115 130 93 1
 166 179 138 2
 138 170 166 2
 132 167 160 2
 136 161 157 2
 160 168 132 2
 136 184 161 2
 47 169 46 2
 139 165 163 2
 137 176 165 2
 163 186 139 2
 46 169 138 2
 132 169 47 2
 134 163 162 2
 134 162 161 2
 147 175 164 2
 165 176 164 2
 142 179 166 2
 168 169 132 2
 164 175 162 2
 164 176 147 2
 168 191 169 2
 169 191 170 2
 167 181 160 2
 157 182 136 2
 163 164 162 2
 178 182 140 2
 182 195 140 2
 170 183 166 2
 169 170 138 2
 163 165 164 2
 165 180 137 2
 145 176 173 2
 173 176 137 2
 147 176 145 2
 48 167 132 2
 55 171 133 2
 143 166 144 2
 142 143 42 2
 41 143 131 2
 42 143 41 2
 49 167 48 2
 140 171 56 2
 142 166 143 2
 143 144 131 2
 53 172 135 2
 133 172 54 2
 141 167 49 2
 55 133 54 2
 144 145 131 2
 145 173 131 2
 48 132 47 2
 150 153 152 2
 154 155 151 2
 131 173 40 2
 56 171 55 2
 153 156 152 2
 153 160 159 2
 57 140 56 2
 146 147 145 2
 39 137 38 2
 43 142 42 2
 148 175 147 2
 154 174 158 2
 41 131 40 2
 154 158 157 2
 39 173 137 2
 146 148 147 2
 149 150 148 2
 150 151 148 2
 40 173 39 2
 54 172 53 2
 62 134 61 2
 152 154 151 2
 50 141 49 2
 53 135 52 2
 64 139 63 2
 146 149 148 2
 60 136 59 2
 150 152 151 2
 155 175 151 2
 152 174 154 2
 161 162 155 2
 46 138 45 2
 144 146 145 2
 156 174 152 2
 154 157 155 2
 162 175 155 2
 153 159 156 2
 151 175 148 2
 157 161 155 2
 160 185 168 2
 177 196 141 2
 141 196 181 2
 59 178 58 2
 52 177 51 2
 45 179 44 2
 161 184 134 2
 38 180 37 2
 137 180 38 2
 134 186 163 2
 136 178 59 2
 135 177 52 2
 138 179 45 2
 149 191 185 2
 139 180 165 2
 166 183 144 2
 146 183 149 2
 60 184 136 2
 134 184 61 2
 149 185 150 2
 153 185 160 2
 139 186 63 2
 62 186 134 2
 7 189 50 2
 51 189 7 2
 58 188 8 2
 6 190 43 2
 5 187 64 2
 37 187 5 2
 8 188 57 2
 44 190 6 2
 183 191 149 2
 141 181 167 2
 160 181 159 2
 158 182 157 2
 185 191 168 2
 144 183 146 2
 136 182 178 2
 61 184 60 2
 150 185 153 2
 170 191 183 2
 178 188 58 2
 179 190 44 2
 177 189 51 2
 63 186 62 2
 43 190 142 2
 57 188 140 2
 64 187 139 2
 50 189 141 2
 180 187 37 2
 192 195 158 2
 192 194 133 2
 174 194 192 2
 171 192 133 2
 193 194 156 2
 159 193 156 2
 156 194 174 2
 172 193 135 2
 172 194 193 2
 133 194 172 2
 174 192 158 2
 171 195 192 2
 140 195 171 2
 140 188 178 2
 141 189 177 2
 142 190 179 2
 159 196 193 2
 193 196 135 2
 139 187 180 2
 135 196 177 2
 158 195 182 2
 181 196 159 2
 End
