 MeshVersionFormatted 2
 Dimension
 2
 Vertices
 98
                    0                         0                            1
                    1                         0                            2
                    1                         1                            3
                    0                         1                            4
     0.12499999999977                         0                            1
     0.24999999999941                         0                            1
     0.37499999999905                         0                            1
     0.49999999999869                         0                            1
     0.62499999999901                         0                            1
     0.74999999999934                         0                            1
     0.87499999999967                         0                            1
                    1          0.12499999999977                            2
                    1          0.24999999999941                            2
                    1          0.37499999999905                            2
                    1          0.49999999999869                            2
                    1          0.62499999999901                            2
                    1          0.74999999999934                            2
                    1          0.87499999999967                            2
      0.8749999999995                         1                            3
     0.75000000000035                         1                            3
     0.62500000000122                         1                            3
     0.50000000000206                         1                            3
     0.37500000000156                         1                            3
     0.25000000000104                         1                            3
     0.12500000000052                         1                            3
                    0           0.8749999999995                            4
                    0          0.75000000000035                            4
                    0          0.62500000000122                            4
                    0          0.50000000000206                            4
                    0          0.37500000000156                            4
                    0          0.25000000000104                            4
                    0          0.12500000000052                            4
     0.43750000000181           0.8917468245271                            1
     0.12125914095289          0.43112117036854                            1
     0.56249999999885          0.10825317547304                            1
     0.88927506082488          0.56409486310636                            1
      0.1082531754723          0.68750000000078                            1
     0.69010814643829          0.89298495739101                            1
     0.31281086598417          0.10449318608631                            1
     0.88173731489852          0.33077402607778                            1
     0.89051480781311          0.79665793440247                            1
     0.18802967116092           0.8941534943677                            1
     0.81249999999951          0.10825317547334                            1
     0.12076953676381          0.18690935762409                            1
     0.31258827852828          0.89214793616708                            1
     0.37776173212361          0.78514649317305                            1
     0.50046028868828          0.78376912307436                            1
     0.44078402250378          0.67714785211715                            1
     0.56496004948276           0.6767503730786                            1
     0.50048844149667          0.56727788297625                            1
     0.38694285807596          0.56729917871029                            1
      0.4430103817493          0.45684931552185                            1
     0.56349980387502          0.45846841892908                            1
     0.50108503093851          0.35012252869404                            1
     0.37953773393553          0.34812185820708                            1
      0.6251266299094           0.3504430388691                            1
     0.68768773896439          0.45868352063672                            1
     0.43750000000201          0.24222777169199                            1
     0.75000000000057           0.3504809471648                            1
     0.68668231842078          0.24762892664809                            1
     0.31411863959823          0.24965544328046                            1
     0.24418615484442          0.35773612382017                            1
     0.81242894672212          0.45500248311961                            1
     0.75000000000032          0.56698729811008                            1
     0.82212678063041          0.67678595194837                            1
     0.69851598570179          0.68211701800612                            1
     0.76243180583607          0.78687675331113                            1
     0.23533274979923          0.77093399389351                            1
     0.10825317547343          0.31250000000117                            1
      0.2225773588042          0.47344721641342                            1
     0.13712305380401          0.56179824718363                            1
     0.21809253452219          0.65480892822618                            1
     0.62844955668446          0.78507497703804                            1
     0.68749999999927          0.10825317547329                            1
     0.43749999999911            0.108253175473                            1
       0.563275951407          0.89211526915426                            1
     0.62752533658682          0.56838075195614                            1
     0.56250000000144          0.24222777169209                            1
     0.10409951422139          0.81206782209691                            1
     0.19185372118111         0.092925648673581                            1
     0.89658421694298          0.19336200683917                            1
     0.80886664387416          0.89717308644238                            1
      0.2076726160146          0.25628918442207                            1
     0.79891106056047          0.25007334953588                            1
     0.32607333794064          0.67760114260606                            1
     0.91546429876211          0.43749999999887                            1
      0.3281595767788          0.45772433581183                            1
      0.9226624454759          0.68749999999918                            1
    0.091506350946495          0.90849364905351                            1
     0.90849364905363          0.90849364905368                            1
    0.091506350946418         0.091506350946618                            1
     0.90849364905355         0.091506350946296                            1
     0.26982811998763          0.56544650815857                            1
     0.62499999999893          0.17524047358136                            1
     0.49999999999934          0.17524047358151                            1
     0.37500000000232          0.17524047358384                            1
     0.73983916756366          0.17530677078675                            1
     0.25103557339309          0.17464499738447                            1
 Edges
 32
 1 5 1
 5 6 1
 6 7 1
 7 8 1
 8 9 1
 9 10 1
 10 11 1
 11 2 1
 2 12 2
 12 13 2
 13 14 2
 14 15 2
 15 16 2
 16 17 2
 17 18 2
 18 3 2
 3 19 3
 19 20 3
 20 21 3
 21 22 3
 22 23 3
 23 24 3
 24 25 3
 25 4 3
 4 26 4
 26 27 4
 27 28 4
 28 29 4
 29 30 4
 30 31 4
 31 32 4
 32 1 4
 Triangles
 162
 37 68 79 1
 68 37 72 1
 62 34 69 1
 59 40 63 1
 34 62 70 1
 63 40 86 1
 28 29 71 1
 65 41 67 1
 67 38 73 1
 41 65 88 1
 29 34 71 1
 37 28 71 1
 64 36 65 1
 63 36 64 1
 66 49 77 1
 66 67 73 1
 68 42 79 1
 34 70 71 1
 64 66 77 1
 49 66 73 1
 71 70 93 1
 72 71 93 1
 62 69 83 1
 40 59 84 1
 64 65 66 1
 43 81 84 1
 43 84 97 1
 68 72 85 1
 37 71 72 1
 66 65 67 1
 38 67 82 1
 33 45 46 1
 33 23 45 1
 34 30 69 1
 22 23 33 1
 45 42 68 1
 29 30 34 1
 73 38 76 1
 38 21 76 1
 24 42 45 1
 22 33 76 1
 35 9 74 1
 15 16 36 1
 31 44 69 1
 8 9 35 1
 21 22 76 1
 23 24 45 1
 39 7 75 1
 33 46 47 1
 30 31 69 1
 8 35 75 1
 33 47 76 1
 10 43 74 1
 7 8 75 1
 24 25 42 1
 47 73 76 1
 46 45 68 1
 9 10 74 1
 17 18 41 1
 31 32 44 1
 10 11 43 1
 6 7 39 1
 47 46 48 1
 57 64 77 1
 61 55 62 1
 57 63 64 1
 13 14 40 1
 27 28 37 1
 50 48 51 1
 54 52 55 1
 47 49 73 1
 57 59 63 1
 53 56 57 1
 50 51 52 1
 47 48 49 1
 54 55 58 1
 20 21 38 1
 57 56 59 1
 49 48 50 1
 53 52 54 1
 50 52 53 1
 53 54 56 1
 58 55 61 1
 49 50 77 1
 53 57 77 1
 50 53 77 1
 59 56 60 1
 54 58 78 1
 56 54 78 1
 60 56 78 1
 70 62 87 1
 44 80 98 1
 83 44 98 1
 26 27 79 1
 5 6 80 1
 12 13 81 1
 36 63 86 1
 19 20 82 1
 20 38 82 1
 65 36 88 1
 27 37 79 1
 6 39 80 1
 13 40 81 1
 87 51 93 1
 67 41 82 1
 51 48 85 1
 46 68 85 1
 15 36 86 1
 40 14 86 1
 62 55 87 1
 52 51 87 1
 36 16 88 1
 17 41 88 1
 4 26 89 1
 3 19 90 1
 1 5 91 1
 32 1 91 1
 2 12 92 1
 11 2 92 1
 25 4 89 1
 18 3 90 1
 51 85 93 1
 61 62 83 1
 69 44 83 1
 59 60 84 1
 70 87 93 1
 48 46 85 1
 81 40 84 1
 14 15 86 1
 55 52 87 1
 85 72 93 1
 12 81 92 1
 26 79 89 1
 5 80 91 1
 16 17 88 1
 42 25 89 1
 41 18 90 1
 44 32 91 1
 43 11 92 1
 19 82 90 1
 60 94 97 1
 39 75 96 1
 94 78 95 1
 35 74 94 1
 35 94 95 1
 78 58 95 1
 75 35 95 1
 60 78 94 1
 58 61 96 1
 95 58 96 1
 75 95 96 1
 94 74 97 1
 74 43 97 1
 79 42 89 1
 81 43 92 1
 80 44 91 1
 96 61 98 1
 39 96 98 1
 82 41 90 1
 80 39 98 1
 84 60 97 1
 61 83 98 1
 End
